<?xml version="1.0" standalone="no"?>
<!DOCTYPE svg PUBLIC "-//W3C//DTD SVG 20010904//EN"
 "http://www.w3.org/TR/2001/REC-SVG-20010904/DTD/svg10.dtd">
<svg version="1.0" xmlns="http://www.w3.org/2000/svg"
 width="146.000000pt" height="160.000000pt" viewBox="0 0 146.000000 160.000000"
 preserveAspectRatio="xMidYMid meet">
<metadata>
Created by potrace 1.10, written by Peter Selinger 2001-2011
</metadata>
<g transform="translate(0.000000,160.000000) scale(0.050000,-0.050000)"
fill="#000000" stroke="none">
<path d="M1068 2918 c-175 -100 -340 -198 -368 -216 -27 -19 -99 -60 -160 -91
-463 -244 -430 -164 -430 -1032 0 -678 2 -720 38 -753 35 -34 37 -34 26 -1
-27 75 442 230 926 306 259 40 910 60 1231 37 l239 -17 -440 -14 c-752 -25
-1416 -138 -1875 -320 l-56 -22 66 -49 c96 -71 464 -266 503 -266 18 0 38 -13
44 -28 11 -29 446 -292 483 -292 11 0 64 44 118 97 262 261 741 500 1068 533
102 10 99 8 -61 -37 -309 -86 -465 -162 -710 -345 -197 -148 -328 -285 -292
-307 47 -29 137 12 460 205 172 103 429 254 572 334 143 80 283 174 310 207
l50 61 6 703 7 703 -51 60 c-42 50 -294 205 -492 302 -27 13 -86 47 -130 74
-44 28 -101 60 -126 70 -26 11 -75 41 -110 67 -353 261 -438 264 -846 31z
m512 115 c28 -15 244 -138 480 -273 237 -135 477 -272 535 -304 194 -108 186
-79 180 -734 -3 -393 -12 -571 -26 -568 -837 149 -2097 98 -2575 -104 -35 -15
-36 13 -30 616 7 765 -58 649 556 990 126 70 424 241 460 264 200 129 327 163
420 113z m800 -2011 c0 -20 -102 -43 -125 -29 -9 5 -10 18 -4 28 15 24 129 25
129 1z m240 -2 c23 -15 18 -19 -25 -20 -30 0 -62 -1 -69 -1 -8 -1 -18 8 -22
20 -9 26 75 27 116 1z m-460 -20 c0 -11 -11 -21 -25 -22 -14 0 -42 -4 -64 -8
-47 -9 -76 6 -60 31 15 25 149 24 149 -1z m-260 -28 c0 -41 -114 -77 -128 -41
-7 19 11 34 54 47 35 10 66 19 69 20 3 1 5 -11 5 -26z m650 -12 c26 -2 14 -12
-36 -31 -121 -44 -143 -44 -146 3 -2 36 8 41 70 36 40 -3 90 -7 112 -8z m-870
-59 c0 -20 -122 -66 -136 -52 -21 21 17 68 60 75 52 9 76 2 76 -23z m311 -3
c21 -33 -26 -71 -53 -44 -23 23 -9 66 22 66 10 0 24 -10 31 -22z m311 -6 c37
33 38 32 38 -29 0 -36 -11 -64 -25 -65 -14 -2 -50 -6 -81 -9 -50 -6 -54 -1
-47 47 4 30 18 52 30 49 13 -3 24 6 25 20 2 14 7 9 12 -12 9 -34 11 -34 48 -1z
m-1283 -117 c1 -8 -15 -15 -34 -15 -30 1 -31 3 -5 20 23 15 13 20 -40 20 -70
1 -70 1 -21 29 48 26 98 0 100 -54z m421 56 c0 -37 -73 -78 -112 -63 -44 17
-33 47 27 69 76 28 85 27 85 -6z m287 -1 c-8 -21 -2 -27 19 -19 24 9 28 2 20
-29 -8 -31 -1 -42 27 -44 20 -1 6 -10 -33 -20 -38 -10 -87 -28 -108 -40 -28
-16 -42 -15 -54 5 -13 21 -17 19 -18 -8 0 -20 15 -36 35 -36 33 -1 -31 -37
-85 -46 -11 -2 -33 -13 -50 -23 -16 -10 -48 -19 -69 -19 -29 -1 -41 -16 -44
-56 -3 -39 3 -52 19 -42 14 9 13 1 -3 -19 -29 -35 -103 -47 -103 -16 0 10 -11
17 -25 17 -91 -4 -111 25 -62 88 11 15 27 44 34 65 14 37 15 37 41 2 14 -20
35 -30 47 -23 27 17 46 93 23 93 -10 0 -18 -13 -18 -29 0 -16 -9 -34 -19 -41
-11 -6 -18 14 -15 46 4 54 9 57 59 43 32 -10 55 -8 55 2 0 11 8 19 18 19 10 0
14 -20 8 -45 -5 -26 -2 -36 7 -25 40 48 147 109 173 99 37 -14 94 42 94 92 0
22 9 39 19 39 11 0 15 -14 8 -30z m387 14 c15 -10 17 -25 6 -44 -14 -23 -24
-24 -42 -6 -17 17 -36 17 -70 1 l-47 -21 42 -37 c49 -42 40 -47 -30 -15 -72
33 -87 105 -20 93 31 -6 54 0 61 17 11 30 62 36 100 12z m-1414 -43 c0 -33
-75 -64 -91 -39 -15 24 24 57 66 58 14 0 25 -9 25 -19z m140 -1 c19 0 14 -52
-7 -74 -8 -8 -24 -2 -35 15 -16 22 -18 19 -9 -13 10 -37 5 -41 -39 -33 -27 5
-50 18 -50 27 0 33 70 95 97 86 14 -4 34 -8 43 -8z m379 -69 c19 -23 12 -35
-40 -61 -87 -46 -133 -6 -59 51 60 46 68 47 99 10z m-230 -180 c-47 -36 -82
-39 -101 -8 -25 40 76 101 111 66 26 -25 24 -32 -10 -58z"/>
<path d="M1148 2115 l2 -465 78 0 79 0 -5 245 c-5 266 -4 271 69 190 l49 -55
49 55 c73 81 74 76 69 -190 l-5 -245 79 2 78 2 4 463 c3 286 -3 463 -14 463
-11 0 -71 -76 -133 -170 -62 -93 -120 -170 -128 -170 -8 0 -66 77 -128 170
-63 94 -122 170 -130 170 -9 0 -15 -209 -13 -465z"/>
<path d="M1824 2556 c-41 -41 -33 -823 8 -858 37 -31 339 -42 393 -14 66 33
49 228 -24 265 -87 46 -101 39 -101 -49 0 -78 -2 -80 -70 -80 l-70 0 0 300 0
300 70 0 c49 0 70 -9 70 -30 0 -38 27 -38 101 1 68 35 86 154 27 177 -59 22
-379 13 -404 -12z"/>
<path d="M640 2478 c0 -79 2 -81 62 -75 l61 7 -2 -385 -3 -385 81 0 80 0 6
385 5 385 60 0 c55 0 61 6 66 75 l6 75 -211 0 -211 0 0 -82z"/>
<path d="M644 1549 c-87 -61 -38 -240 61 -225 44 7 92 66 70 87 -7 8 -28 -1
-46 -19 -44 -44 -69 -23 -69 59 0 56 8 69 40 69 22 0 40 -9 40 -20 0 -11 9
-20 20 -20 35 0 21 58 -19 79 -48 26 -44 27 -97 -10z"/>
<path d="M1195 1535 c-16 -46 9 -192 34 -202 22 -8 27 79 13 212 -3 24 -37 17
-47 -10z"/>
<path d="M1786 1535 c-37 -48 -7 -195 40 -195 33 0 37 5 18 24 -28 28 -32 110
-5 119 10 4 7 23 -8 42 -20 28 -30 30 -45 10z"/>
<path d="M856 1495 c-74 -58 -61 -150 24 -160 65 -7 111 76 73 134 -34 51 -57
57 -97 26z m64 -76 c0 -22 -13 -39 -30 -39 -30 0 -42 61 -17 86 21 21 47 -5
47 -47z"/>
<path d="M1035 1506 c-27 -7 -35 -30 -35 -99 0 -54 8 -85 20 -77 11 7 20 39
20 73 0 46 8 58 35 53 25 -5 33 -22 29 -59 -4 -29 3 -59 15 -66 22 -14 27 4
25 97 -1 51 -33 96 -64 89 -5 -1 -26 -6 -45 -11z"/>
<path d="M1313 1507 c-21 -21 -15 -163 7 -177 12 -7 20 12 20 46 0 33 14 70
30 84 17 14 30 33 30 42 0 21 -67 24 -87 5z"/>
<path d="M1437 1487 c-24 -30 -22 -33 18 -22 25 6 50 4 55 -5 6 -10 -10 -20
-35 -24 -84 -11 -72 -96 14 -96 67 0 71 4 71 66 0 104 -67 148 -123 81z"/>
<path d="M1621 1491 c-47 -56 -18 -141 47 -141 32 0 63 12 67 26 7 19 -5 22
-43 13 -43 -11 -52 -6 -52 28 0 46 31 74 50 43 18 -29 50 -25 50 8 0 25 -40
52 -79 52 -9 0 -27 -13 -40 -29z"/>
<path d="M1893 1506 c-21 -21 -15 -166 7 -166 11 0 20 2 21 5 22 148 13 202
-28 161z"/>
<path d="M1980 1462 c0 -32 -5 -73 -12 -90 -8 -21 -1 -32 20 -32 23 0 32 19
32 72 0 90 47 83 56 -9 9 -90 44 -78 44 15 0 80 -22 102 -102 102 -29 0 -38
-14 -38 -58z"/>
<path d="M2168 1492 c-24 -63 1 -142 47 -148 25 -4 41 -15 35 -25 -6 -9 -24
-13 -39 -7 -15 6 -33 0 -41 -12 -10 -16 7 -21 53 -16 67 6 67 7 73 121 l6 115
-62 0 c-34 0 -66 -12 -72 -28z m92 -73 c0 -22 -13 -39 -30 -39 -30 0 -42 61
-17 86 21 21 47 -5 47 -47z"/>
</g>
</svg>
